<svg width="116" height="79" viewBox="0 0 116 79" fill="none" xmlns="http://www.w3.org/2000/svg">
<path d="M76.7349 78.8933H0V0H76.7349V26.9929H73.1777V3.65733H3.55354V75.236H73.1777V51.724H76.7349V78.8933Z" fill="#F41707"/>
<path d="M15.6758 31.3447H19.2405V38.3296L24.3416 31.3447H28.6185L22.7606 38.7437L29.0846 47.3771H24.5653L19.2405 39.7481V47.3771H15.6758V31.3447Z" fill="#F41707"/>
<path d="M38.3793 44.0722C41.2543 44.0722 42.7458 41.9828 42.7458 39.3606C42.7458 36.5159 40.8217 34.6489 38.3793 34.6489C35.8735 34.6489 34.0165 36.5159 34.0165 39.3606C34.0165 42.025 35.9593 44.0722 38.3793 44.0722ZM38.3793 31.3174C42.9845 31.3174 46.4225 34.4035 46.4225 39.3606C46.4225 44.0722 42.9845 47.4037 38.3793 47.4037C33.7779 47.4037 30.3398 44.3137 30.3398 39.3606C30.3398 34.8483 33.5616 31.3174 38.3793 31.3174Z" fill="#F41707"/>
<path d="M61.4129 47.3764L54.0186 37.7576V47.3764H50.6738V31.3477H53.5264L60.9244 41.0086L60.917 31.3477H64.258L64.2654 47.3764H61.4129Z" fill="#F41707"/>
<path d="M68.5547 31.3447H81.4751V34.7797H76.7954V47.3771H73.2307V34.7797H68.5547V31.3447Z" fill="#F41707"/>
<path d="M98.7642 40.4799C98.7642 45.3793 95.7364 47.3728 92.3954 47.3728C88.387 47.3728 85.6016 45.0151 85.6016 40.3189V31.3521H89.1663V39.5407C89.1663 42.0364 89.9009 43.9379 92.3954 43.9379C94.5544 43.9379 95.1995 42.3124 95.1995 39.7477V31.3521H98.7642V40.4799Z" fill="#F41707"/>
<path d="M106.614 34.833V38.3829H107.904C109.265 38.3829 110.331 37.8769 110.331 36.5274C110.331 35.6342 109.891 34.8292 108.176 34.8292C107.639 34.8292 107.348 34.81 106.614 34.833ZM103.049 47.3728V31.3521C103.918 31.3521 107.904 31.3521 108.351 31.3521C112.606 31.3521 114.12 33.5257 114.12 36.4814C114.12 39.4563 112.337 40.6716 111.491 41.1086L115.999 47.3728H111.677L107.926 41.8179H106.614V47.3728H103.049Z" fill="#F41707"/>
</svg>
