<svg width="130" height="23" viewBox="0 0 130 23" fill="none" xmlns="http://www.w3.org/2000/svg">
<path d="M8.516 18.312C7.112 18.312 5.93333 17.766 4.98 16.674V22.784H0.3V5.442H4.98V6.768C5.89867 5.676 7.07733 5.13 8.516 5.13C10.128 5.13 11.4453 5.71067 12.468 6.872C13.508 8.016 14.028 9.628 14.028 11.708C14.028 13.8053 13.508 15.4347 12.468 16.596C11.4453 17.74 10.128 18.312 8.516 18.312ZM6.904 14.178C7.56267 14.178 8.11733 13.9613 8.568 13.528C9.01867 13.0773 9.244 12.4707 9.244 11.708C9.244 10.9627 9.01867 10.3733 8.568 9.94C8.11733 9.48933 7.56267 9.264 6.904 9.264C6.57467 9.264 6.21933 9.342 5.838 9.498C5.474 9.654 5.188 9.862 4.98 10.122V13.32C5.17067 13.5627 5.45667 13.7707 5.838 13.944C6.23667 14.1 6.592 14.178 6.904 14.178ZM21.8989 18.312C19.8882 18.312 18.2156 17.714 16.8809 16.518C15.5636 15.322 14.9049 13.7187 14.9049 11.708C14.9049 9.85333 15.5462 8.29333 16.8289 7.028C18.1116 5.76267 19.7496 5.13 21.7429 5.13C23.6322 5.13 25.1922 5.77133 26.4229 7.054C27.6536 8.31933 28.2689 10.0353 28.2689 12.202V13.164H19.7409C19.8796 13.5973 20.1829 13.97 20.6509 14.282C21.1189 14.594 21.7169 14.75 22.4449 14.75C22.8436 14.75 23.3462 14.6633 23.9529 14.49C24.5769 14.3167 25.0362 14.1087 25.3309 13.866L27.2549 16.752C26.6656 17.2547 25.8769 17.6447 24.8889 17.922C23.9009 18.182 22.9042 18.312 21.8989 18.312ZM23.8229 10.2C23.5802 9.19467 22.8869 8.692 21.7429 8.692C20.6509 8.692 19.9662 9.19467 19.6889 10.2H23.8229ZM35.1581 18.312C33.7541 18.312 32.6794 17.9827 31.9341 17.324C31.2061 16.648 30.8421 15.66 30.8421 14.36V9.498H28.7621V5.442H30.8421V2.01H35.5221V5.442H38.0701V9.498H35.5221V13.008C35.5221 13.3373 35.6174 13.6147 35.8081 13.84C35.9987 14.0653 36.2501 14.178 36.5621 14.178C37.0301 14.178 37.3421 14.1 37.4981 13.944L38.3301 17.48C37.7061 18.0347 36.6487 18.312 35.1581 18.312Z" fill="#2461CC"/>
<path d="M45.5278 13.658H39.2878V9.758H45.5278V13.658ZM52.2827 13.346C52.7334 13.9007 53.3834 14.178 54.2327 14.178C54.8914 14.178 55.4461 13.9613 55.8967 13.528C56.3474 13.0773 56.5727 12.4707 56.5727 11.708C56.5727 10.9627 56.3474 10.3733 55.8967 9.94C55.4461 9.48933 54.8914 9.264 54.2327 9.264C53.4007 9.264 52.7507 9.55 52.2827 10.122V13.346ZM52.2827 18H47.6027V0.657999H52.2827V6.768C53.1841 5.676 54.3627 5.13 55.8187 5.13C57.4134 5.13 58.7307 5.71933 59.7707 6.898C60.8281 8.07667 61.3567 9.68 61.3567 11.708C61.3567 13.788 60.8281 15.4087 59.7707 16.57C58.7307 17.7313 57.4134 18.312 55.8187 18.312C54.4321 18.312 53.2534 17.766 52.2827 16.674V18ZM69.227 18.312C67.2163 18.312 65.5437 17.714 64.209 16.518C62.8917 15.322 62.233 13.7187 62.233 11.708C62.233 9.85333 62.8743 8.29333 64.157 7.028C65.4397 5.76267 67.0777 5.13 69.071 5.13C70.9603 5.13 72.5203 5.77133 73.751 7.054C74.9817 8.31933 75.597 10.0353 75.597 12.202V13.164H67.069C67.2077 13.5973 67.511 13.97 67.979 14.282C68.447 14.594 69.045 14.75 69.773 14.75C70.1717 14.75 70.6743 14.6633 71.281 14.49C71.905 14.3167 72.3643 14.1087 72.659 13.866L74.583 16.752C73.9937 17.2547 73.205 17.6447 72.217 17.922C71.229 18.182 70.2323 18.312 69.227 18.312ZM71.151 10.2C70.9083 9.19467 70.215 8.692 69.071 8.692C67.979 8.692 67.2943 9.19467 67.017 10.2H71.151ZM83.3442 18.312C81.3335 18.312 79.6609 17.714 78.3262 16.518C77.0089 15.322 76.3502 13.7187 76.3502 11.708C76.3502 9.85333 76.9915 8.29333 78.2742 7.028C79.5569 5.76267 81.1949 5.13 83.1882 5.13C85.0775 5.13 86.6375 5.77133 87.8682 7.054C89.0989 8.31933 89.7142 10.0353 89.7142 12.202V13.164H81.1862C81.3249 13.5973 81.6282 13.97 82.0962 14.282C82.5642 14.594 83.1622 14.75 83.8902 14.75C84.2889 14.75 84.7915 14.6633 85.3982 14.49C86.0222 14.3167 86.4815 14.1087 86.7762 13.866L88.7002 16.752C88.1109 17.2547 87.3222 17.6447 86.3342 17.922C85.3462 18.182 84.3495 18.312 83.3442 18.312ZM85.2682 10.2C85.0255 9.19467 84.3322 8.692 83.1882 8.692C82.0962 8.692 81.4115 9.19467 81.1342 10.2H85.2682ZM96.0054 18H91.3254V5.442H96.0054V6.82C96.4041 6.352 96.9674 5.94467 97.6954 5.598C98.4407 5.25133 99.1601 5.078 99.8534 5.078V9.55C99.5934 9.46333 99.2381 9.42 98.7874 9.42C97.4181 9.42 96.4907 9.71467 96.0054 10.304V18ZM103.436 17.48C102.882 18.0347 102.232 18.312 101.486 18.312C100.741 18.312 100.091 18.0347 99.5363 17.48C98.9816 16.9253 98.7043 16.2753 98.7043 15.53C98.7043 14.7847 98.9816 14.1347 99.5363 13.58C100.091 13.0253 100.741 12.748 101.486 12.748C102.232 12.748 102.882 13.0253 103.436 13.58C103.991 14.1347 104.268 14.7847 104.268 15.53C104.268 16.2753 103.991 16.9253 103.436 17.48ZM111.164 18H106.484V5.442H111.164V6.82C111.562 6.352 112.126 5.94467 112.854 5.598C113.599 5.25133 114.318 5.078 115.012 5.078V9.55C114.752 9.46333 114.396 9.42 113.946 9.42C112.576 9.42 111.649 9.71467 111.164 10.304V18ZM129.77 18H125.09V16.596C124.05 17.74 122.612 18.312 120.774 18.312C119.388 18.312 118.348 17.948 117.654 17.22C116.961 16.492 116.614 15.556 116.614 14.412V5.442H121.294V12.41C121.294 13.5887 121.901 14.178 123.114 14.178C123.842 14.178 124.501 13.8487 125.09 13.19V5.442H129.77V18Z" fill="#253045"/>
</svg>
