<svg width="115" height="26" viewBox="0 0 115 26" fill="none" xmlns="http://www.w3.org/2000/svg">
<path d="M19.816 25H13.948L9.232 16.468H5.488V25H0.376V0.987998H11.608C14.08 0.987998 16.036 1.708 17.476 3.148C18.94 4.588 19.672 6.448 19.672 8.728C19.672 10.696 19.156 12.292 18.124 13.516C17.116 14.74 15.88 15.52 14.416 15.856L19.816 25ZM10.852 11.968C11.908 11.968 12.772 11.68 13.444 11.104C14.116 10.504 14.452 9.712 14.452 8.728C14.452 7.744 14.116 6.964 13.444 6.388C12.772 5.788 11.908 5.488 10.852 5.488H5.488V11.968H10.852ZM37.071 22.804C35.391 24.556 33.159 25.432 30.375 25.432C27.591 25.432 25.359 24.556 23.679 22.804C22.023 21.028 21.195 18.856 21.195 16.288C21.195 13.72 22.023 11.56 23.679 9.808C25.359 8.056 27.591 7.18 30.375 7.18C33.159 7.18 35.391 8.056 37.071 9.808C38.751 11.56 39.591 13.72 39.591 16.288C39.591 18.856 38.751 21.028 37.071 22.804ZM27.135 19.924C27.927 20.884 29.007 21.364 30.375 21.364C31.743 21.364 32.823 20.884 33.615 19.924C34.431 18.94 34.839 17.728 34.839 16.288C34.839 14.872 34.431 13.684 33.615 12.724C32.823 11.74 31.743 11.248 30.375 11.248C29.007 11.248 27.927 11.74 27.135 12.724C26.343 13.684 25.947 14.872 25.947 16.288C25.947 17.728 26.343 18.94 27.135 19.924ZM47.5548 19.42C47.9388 19.972 48.5028 20.44 49.2468 20.824C49.9908 21.184 50.7348 21.364 51.4788 21.364C52.7988 21.364 53.8668 20.908 54.6828 19.996C55.4988 19.06 55.9068 17.836 55.9068 16.324C55.9068 14.812 55.4988 13.588 54.6828 12.652C53.8668 11.716 52.7988 11.248 51.4788 11.248C50.7348 11.248 49.9908 11.44 49.2468 11.824C48.5028 12.208 47.9388 12.688 47.5548 13.264V19.42ZM47.5548 25H42.9828V0.987998H47.5548V9.844C48.9228 8.068 50.7108 7.18 52.9188 7.18C55.1748 7.18 57.0228 8.008 58.4628 9.664C59.9028 11.32 60.6228 13.54 60.6228 16.324C60.6228 19.156 59.9028 21.388 58.4628 23.02C57.0228 24.628 55.1748 25.432 52.9188 25.432C50.7588 25.432 48.9708 24.544 47.5548 22.768V25ZM78.8366 22.804C77.1566 24.556 74.9246 25.432 72.1406 25.432C69.3566 25.432 67.1246 24.556 65.4446 22.804C63.7886 21.028 62.9606 18.856 62.9606 16.288C62.9606 13.72 63.7886 11.56 65.4446 9.808C67.1246 8.056 69.3566 7.18 72.1406 7.18C74.9246 7.18 77.1566 8.056 78.8366 9.808C80.5166 11.56 81.3566 13.72 81.3566 16.288C81.3566 18.856 80.5166 21.028 78.8366 22.804ZM68.9006 19.924C69.6926 20.884 70.7726 21.364 72.1406 21.364C73.5086 21.364 74.5886 20.884 75.3806 19.924C76.1966 18.94 76.6046 17.728 76.6046 16.288C76.6046 14.872 76.1966 13.684 75.3806 12.724C74.5886 11.74 73.5086 11.248 72.1406 11.248C70.7726 11.248 69.6926 11.74 68.9006 12.724C68.1086 13.684 67.7126 14.872 67.7126 16.288C67.7126 17.728 68.1086 18.94 68.9006 19.924ZM90.5805 25.432C88.9725 25.432 87.7485 25.024 86.9085 24.208C86.0685 23.392 85.6485 22.216 85.6485 20.68V11.608H82.7685V7.612H85.6485V2.86H90.2565V7.612H93.7845V11.608H90.2565V19.456C90.2565 20.008 90.4005 20.464 90.6885 20.824C90.9765 21.184 91.3605 21.364 91.8405 21.364C92.5605 21.364 93.0885 21.196 93.4245 20.86L94.3965 24.316C93.5565 25.06 92.2845 25.432 90.5805 25.432ZM111.673 22.804C109.993 24.556 107.761 25.432 104.977 25.432C102.193 25.432 99.9605 24.556 98.2805 22.804C96.6245 21.028 95.7965 18.856 95.7965 16.288C95.7965 13.72 96.6245 11.56 98.2805 9.808C99.9605 8.056 102.193 7.18 104.977 7.18C107.761 7.18 109.993 8.056 111.673 9.808C113.353 11.56 114.193 13.72 114.193 16.288C114.193 18.856 113.353 21.028 111.673 22.804ZM101.737 19.924C102.529 20.884 103.609 21.364 104.977 21.364C106.345 21.364 107.425 20.884 108.217 19.924C109.033 18.94 109.441 17.728 109.441 16.288C109.441 14.872 109.033 13.684 108.217 12.724C107.425 11.74 106.345 11.248 104.977 11.248C103.609 11.248 102.529 11.74 101.737 12.724C100.945 13.684 100.549 14.872 100.549 16.288C100.549 17.728 100.945 18.94 101.737 19.924Z" fill="#253045"/>
</svg>
